<?xml version="1.0" standalone="no"?>
<!DOCTYPE svg PUBLIC "-//W3C//DTD SVG 20010904//EN"
 "http://www.w3.org/TR/2001/REC-SVG-20010904/DTD/svg10.dtd">
<svg version="1.0" xmlns="http://www.w3.org/2000/svg"
 width="792.000000pt" height="792.000000pt" viewBox="0 0 792.000000 792.000000"
 preserveAspectRatio="xMidYMid meet">
<metadata>
Created by potrace 1.14, written by Peter Selinger 2001-2017
</metadata>
<g transform="translate(0.000000,792.000000) scale(0.100000,-0.100000)"
fill="#000000" stroke="none">
<path d="M4211 7817 c-6 -6 -11 -15 -11 -19 0 -12 -190 -442 -199 -451 -5 -5
-71 -10 -147 -12 -137 -3 -265 -11 -314 -20 -14 -2 -45 -7 -70 -10 -63 -9 -96
-14 -164 -27 -71 -13 -39 -47 -256 272 -51 74 -99 140 -107 147 -11 9 -24 8
-56 -4 -23 -8 -51 -16 -61 -19 -58 -12 -339 -114 -452 -164 -99 -44 -343 -169
-420 -216 -64 -38 -277 -177 -293 -190 -2 -2 2 -23 8 -46 7 -24 16 -56 21 -73
4 -16 32 -113 62 -215 l54 -185 -72 -60 c-95 -78 -324 -310 -398 -402 -60 -76
-69 -80 -120 -63 -84 28 -452 127 -461 123 -5 -2 -17 -16 -26 -31 -9 -15 -47
-76 -86 -137 -61 -97 -98 -162 -178 -310 -32 -61 -120 -259 -159 -361 -46
-120 -124 -363 -132 -412 l-6 -39 220 -147 c191 -127 220 -150 216 -169 -6
-33 -22 -136 -29 -187 -3 -25 -8 -61 -10 -80 -9 -70 -18 -228 -19 -345 l-1
-120 -50 -27 c-28 -15 -57 -28 -66 -28 -9 0 -22 -7 -29 -15 -7 -9 -15 -14 -17
-11 -2 2 -40 -14 -84 -35 -44 -21 -82 -39 -84 -39 -3 0 -39 -16 -80 -35 l-76
-36 6 -57 c3 -31 8 -73 11 -93 2 -20 7 -54 9 -75 5 -35 17 -104 30 -174 3 -14
7 -38 10 -55 4 -16 13 -59 22 -94 8 -36 16 -72 18 -80 26 -123 133 -437 204
-596 10 -22 28 -64 41 -93 l24 -52 50 5 c28 3 94 10 146 16 146 16 151 16 220
24 36 4 77 8 91 11 21 3 29 -3 49 -39 24 -43 158 -254 173 -272 4 -5 34 -45
65 -87 31 -42 85 -110 119 -150 l61 -74 -19 -35 c-17 -32 -129 -265 -186 -388
l-25 -53 29 -31 c29 -31 98 -97 136 -130 12 -10 36 -31 52 -45 17 -15 66 -56
110 -90 44 -35 91 -73 105 -84 14 -11 95 -66 180 -123 165 -109 319 -198 463
-265 l89 -42 25 23 c14 13 51 51 82 83 31 33 103 108 161 168 l105 110 120
-42 c66 -22 181 -56 255 -75 128 -32 163 -39 303 -66 59 -11 62 -14 71 -59 3
-14 13 -52 22 -85 16 -58 19 -71 29 -116 2 -12 12 -47 21 -78 9 -31 17 -63 19
-71 10 -49 28 -111 34 -114 23 -15 457 -23 596 -12 22 2 77 7 122 10 45 4 92
9 104 11 13 3 41 7 64 10 57 8 117 17 140 21 11 2 34 7 50 10 32 6 164 35 258
58 33 7 63 18 68 23 4 4 11 42 14 83 3 41 7 100 10 130 2 30 7 111 10 180 4
73 12 130 18 136 7 6 53 26 102 44 151 56 301 126 463 218 62 35 116 62 120
60 4 -2 100 -69 214 -151 114 -81 211 -147 217 -147 8 0 208 143 221 159 3 3
34 31 70 61 161 136 307 281 460 459 69 80 219 279 232 308 9 18 -4 40 -93
163 -213 290 -209 284 -196 307 113 199 215 415 272 578 16 44 31 83 34 87 3
3 51 9 106 12 55 4 116 9 135 11 19 2 73 7 120 10 169 12 171 12 176 38 2 7
12 48 23 92 32 131 63 301 77 420 3 33 8 69 10 80 25 128 21 771 -4 797 -4 4
-16 9 -27 11 -11 2 -31 7 -45 10 -14 4 -117 29 -229 57 -113 27 -208 55 -212
62 -4 7 -13 44 -20 83 -25 149 -91 392 -153 560 -14 38 -26 73 -26 76 0 4 85
91 189 194 l190 187 -70 135 c-136 264 -323 545 -484 732 -84 97 -128 145
-194 213 l-76 78 -195 -96 c-107 -52 -215 -106 -239 -119 l-44 -23 -76 63
c-42 34 -114 90 -161 123 -47 34 -89 65 -95 70 -15 12 -236 145 -268 162 -31
15 -30 -1 -12 170 2 19 6 69 10 110 4 41 8 86 10 100 2 14 7 57 10 96 l6 72
-108 47 c-230 102 -587 213 -803 250 -19 3 -53 10 -75 15 -32 7 -102 16 -180
25 -32 4 -154 17 -177 20 -15 1 -32 -3 -37 -8z"/>
</g>
</svg>
